<svg width="64" height="64" viewBox="0 0 64 64" fill="none" xmlns="http://www.w3.org/2000/svg">
<path d="M11.75 18H14.25V20.5C14.25 21.5355 15.0895 22.375 16.125 22.375C17.1605 22.375 18 21.5355 18 20.5V18H20.5C21.5355 18 22.375 17.1605 22.375 16.125C22.375 15.0895 21.5355 14.25 20.5 14.25H18V11.75C18 10.7145 17.1605 9.875 16.125 9.875C15.0895 9.875 14.25 10.7145 14.25 11.75V14.25H11.75C10.7145 14.25 9.875 15.0895 9.875 16.125C9.875 17.1605 10.7145 18 11.75 18Z" fill="black"/>
<path d="M40.875 18H48.375C49.4105 18 50.25 17.1605 50.25 16.125C50.25 15.0895 49.4105 14.25 48.375 14.25H40.875C39.8395 14.25 39 15.0895 39 16.125C39 17.1605 39.8395 18 40.875 18Z" fill="black"/>
<path d="M49 45.875H40.25C39.2145 45.875 38.375 46.7145 38.375 47.75C38.375 48.7855 39.2145 49.625 40.25 49.625H49C50.0355 49.625 50.875 48.7855 50.875 47.75C50.875 46.7145 50.0355 45.875 49 45.875Z" fill="black"/>
<path d="M49 39.625H40.25C39.2145 39.625 38.375 40.4645 38.375 41.5C38.375 42.5355 39.2145 43.375 40.25 43.375H49C50.0355 43.375 50.875 42.5355 50.875 41.5C50.875 40.4645 50.0355 39.625 49 39.625Z" fill="black"/>
<path d="M20.5758 40.1743C19.8437 39.4421 18.6564 39.4421 17.9242 40.1743L16.1251 41.9734L14.3258 40.1742C13.5937 39.4419 12.4064 39.4419 11.6742 40.1742C10.9419 40.9064 10.9419 42.0936 11.6742 42.8258L13.4734 44.6251L11.6742 46.4243C10.9419 47.1566 10.9419 48.3437 11.6742 49.0759C12.0403 49.4421 12.5202 49.6251 13.0001 49.6251C13.4799 49.6251 13.9598 49.4421 14.3258 49.0758L16.1251 47.2767L17.9243 49.0759C18.2903 49.4421 18.7702 49.6251 19.2501 49.6251C19.7299 49.6251 20.2098 49.4421 20.5758 49.0758C21.3081 48.3436 21.3081 47.1564 20.5758 46.4242L18.7767 44.6251L20.5759 42.8258C21.3082 42.0937 21.3082 40.9064 20.5758 40.1743Z" fill="black"/>
<path d="M60.75 33.8961V5.625C60.75 2.52338 58.2266 0 55.125 0H5.625C2.52338 0 0 2.52338 0 5.625V55.125C0 58.2266 2.52338 60.75 5.625 60.75H33.896C36.9697 62.802 40.6599 64 44.625 64C55.3085 64 64 55.3084 64 44.625C64 40.66 62.802 36.9699 60.75 33.8961ZM57 5.625V29.7288C53.6411 26.9336 49.3261 25.25 44.625 25.25C39.9239 25.25 35.6089 26.9336 32.25 29.7288V3.75H55.125C56.1589 3.75 57 4.59113 57 5.625ZM5.625 3.75H28.5V28.5H3.75V5.625C3.75 4.59113 4.59113 3.75 5.625 3.75ZM3.75 55.125V32.25H28.5V33.8961C26.448 36.9699 25.25 40.66 25.25 44.625C25.25 49.3261 26.9336 53.6411 29.7288 57H5.625C4.59113 57 3.75 56.1589 3.75 55.125V55.125ZM44.625 60.25C36.0094 60.25 29 53.2406 29 44.625C29 36.0094 36.0094 29 44.625 29C53.2406 29 60.25 36.0094 60.25 44.625C60.25 53.2406 53.2406 60.25 44.625 60.25Z" fill="black"/>
</svg>
