<svg width="222" height="179" viewBox="0 0 222 179" fill="none" xmlns="http://www.w3.org/2000/svg">
<g clip-path="url(#clip0)">
<path d="M146.076 100.219C141.393 103.024 133.049 106.538 124.522 102.926L119.011 100.592L130.056 88.228C121.242 78.5238 116.366 65.8881 116.379 52.7872C116.393 39.6864 121.295 27.0607 130.128 17.3745C138.962 7.6884 151.094 1.63703 164.155 0.401595C177.216 -0.833836 190.27 2.83535 200.768 10.693C211.266 18.5506 218.455 30.0326 220.931 42.8979C223.408 55.7633 220.994 69.0885 214.162 80.2726C207.329 91.4567 196.568 99.697 183.979 103.385C171.39 107.073 157.876 105.944 146.076 100.219V100.219ZM124.913 52.7577C124.889 58.7969 126.116 64.7758 128.518 70.3184C130.92 75.8609 134.445 80.8472 138.87 84.9636L141.917 87.8225L134.967 95.6023C138.587 94.8688 141.74 92.9132 143.339 91.7773L145.533 90.2185L147.892 91.5131C154.414 95.0789 161.731 96.9476 169.166 96.9469C193.567 96.9469 213.419 77.1238 213.419 52.7577C213.419 28.3918 193.567 8.56854 169.166 8.56854C144.765 8.56854 124.913 28.3918 124.913 52.7577V52.7577Z" fill="#3F3D56"/>
<path d="M120.623 52.7578C120.623 25.9866 142.356 4.28433 169.166 4.28433C195.976 4.28433 217.709 25.9866 217.709 52.7578C217.709 79.5289 195.976 101.231 169.166 101.231C161.007 101.243 152.977 99.1917 145.826 95.2683C142.47 97.6524 134.284 102.408 126.197 98.9823L135.932 88.0859C131.093 83.5584 127.237 78.0864 124.604 72.0093C121.97 65.9321 120.615 59.3795 120.623 52.7578Z" fill="#1769AA"/>
<path opacity="0.1" d="M209.44 52.8627C209.44 27.5356 189.987 6.74908 165.187 4.57985C166.601 4.45617 168.031 4.38925 169.477 4.38925C196.287 4.38925 218.021 26.0915 218.021 52.8627C218.021 79.6338 196.287 101.336 169.477 101.336C168.034 101.336 166.606 101.268 165.194 101.145C189.99 98.9725 209.44 78.1874 209.44 52.8627Z" fill="black"/>
<path d="M57.3033 167.559C45.1739 167.564 33.411 163.407 23.9861 155.783C14.5611 148.159 8.04685 137.532 5.53497 125.682C3.02309 113.833 4.66625 101.481 10.1891 90.6975C15.7119 79.9139 24.7788 71.3535 35.8702 66.4509C46.9616 61.5483 59.4035 60.6015 71.1108 63.7692C82.8181 66.9369 93.0793 74.0265 100.175 83.8499C107.27 93.6733 110.769 105.634 110.084 117.726C109.399 129.819 104.573 141.309 96.4139 150.271L107.459 162.635L101.947 164.97C93.4208 168.581 85.0769 165.067 80.3937 162.262C73.1962 165.746 65.3019 167.557 57.3033 167.559ZM57.3033 70.6119C32.9023 70.6119 13.0505 90.4351 13.0505 114.801C13.0505 139.167 32.9023 158.99 57.3033 158.99C64.739 158.991 72.0552 157.122 78.5773 153.556L80.9368 152.262L83.1307 153.821C84.7295 154.957 87.8827 156.912 91.503 157.646L84.5527 149.866L87.5993 147.007C92.0248 142.891 95.5493 137.904 97.9512 132.362C100.353 126.819 101.581 120.84 101.556 114.801C101.556 90.4351 81.7044 70.6119 57.3033 70.6119Z" fill="#3F3D56"/>
<path d="M105.847 114.801C105.847 88.0299 84.1132 66.3276 57.3035 66.3276C30.4938 66.3276 8.76017 88.0299 8.76017 114.801C8.76017 141.572 30.4938 163.274 57.3035 163.274C65.4629 163.286 73.4925 161.235 80.6436 157.312C83.9992 159.696 92.1852 164.451 100.272 161.026L90.5376 150.129C95.3767 145.602 99.2326 140.13 101.866 134.052C104.5 127.975 105.854 121.423 105.847 114.801Z" fill="#1769AA"/>
<path opacity="0.1" d="M17.3408 114.556C17.3408 89.2291 36.7941 68.4425 61.5937 66.2733C60.1797 66.1496 58.7494 66.0827 57.3033 66.0827C30.4935 66.0827 8.75995 87.785 8.75995 114.556C8.75995 141.327 30.4935 163.03 57.3033 163.03C58.7472 163.03 60.1751 162.962 61.5869 162.838C36.7905 160.666 17.3408 139.881 17.3408 114.556Z" fill="black"/>
<path d="M180.562 37.3576C177.386 31.9987 171.102 31.749 171.102 31.749C171.102 31.749 164.979 30.9671 161.051 39.1288C157.39 46.7361 152.337 54.0812 160.238 55.8621L161.665 51.4268L162.549 56.1923C163.674 56.273 164.802 56.2923 165.929 56.2499C174.39 55.9772 182.448 56.3297 182.188 53.298C181.843 49.2678 183.618 42.514 180.562 37.3576Z" fill="#2F2E41"/>
<path d="M159.787 84.2883C159.694 84.8777 159.558 85.4597 159.382 86.0299C159.183 86.5879 158.876 87.1041 158.694 87.6679C158.115 89.4651 158.918 91.4689 160.201 92.8562C161.313 94.0544 162.749 94.9056 164.334 95.3073C165.502 95.5567 166.693 95.6817 167.887 95.68C171.189 95.7918 174.575 95.8919 177.704 94.8323C178.692 94.4893 179.647 94.0562 180.556 93.5385C180.843 93.4019 181.096 93.2031 181.296 92.9566C181.506 92.5955 181.599 92.1787 181.563 91.7629C181.556 90.3652 181.272 88.9746 181.34 87.5786C181.377 86.8053 181.522 86.0326 181.451 85.2617C181.352 84.3862 180.985 83.5625 180.399 82.9034C179.813 82.2444 179.038 81.7821 178.179 81.58C177.292 81.3896 176.371 81.4933 175.468 81.5801C173.122 81.8051 170.767 81.9103 168.411 81.8952C166.003 81.8799 163.611 81.5129 161.215 81.4746C160.507 81.4632 160.521 81.6813 160.296 82.3659C160.088 82.996 159.918 83.638 159.787 84.2883Z" fill="#2F2E41"/>
<path d="M166.619 49.7762C166.503 50.3811 166.378 51.0081 166.014 51.5052C165.595 52.0771 164.913 52.4039 164.462 52.9513C163.784 53.7751 163.745 54.9344 163.742 56.0009C163.739 56.9834 163.759 58.0313 164.308 58.8468C164.699 59.3534 165.183 59.7801 165.736 60.1035C167.793 61.4881 170.017 62.8977 172.497 62.9433C173.525 62.9622 174.627 62.6972 175.304 61.924C175.596 61.5609 175.825 61.1518 175.983 60.7135C176.618 59.1521 177.002 57.5008 177.123 55.8201C177.214 55.03 177.14 54.2296 176.906 53.4694C176.604 52.6304 175.995 51.94 175.592 51.1445C175.116 50.1985 174.942 49.1295 175.093 48.0816C175.113 48.0079 175.107 47.9294 175.076 47.8597C175.043 47.8224 175.001 47.7932 174.955 47.7744C174.909 47.7557 174.859 47.7479 174.809 47.7517L169.89 47.3981C169.432 47.3754 168.976 47.3233 168.524 47.2421C168.259 47.1882 167.559 46.8122 167.306 46.9122C166.838 47.0973 166.715 49.2746 166.619 49.7762Z" fill="#A0616A"/>
<path opacity="0.1" d="M166.619 49.9296C166.503 50.5345 166.378 51.1615 166.014 51.6586C165.595 52.2305 164.913 52.5573 164.462 53.1047C163.784 53.9285 163.745 55.0879 163.742 56.1543C163.739 57.1368 163.759 58.1847 164.308 59.0002C164.699 59.5068 165.183 59.9335 165.736 60.2569C167.793 61.6416 170.017 63.0511 172.497 63.0967C173.525 63.1157 174.627 62.8506 175.304 62.0774C175.596 61.7143 175.825 61.3052 175.983 60.867C176.618 59.3055 177.002 57.6542 177.123 55.9736C177.214 55.1834 177.14 54.383 176.906 53.6229C176.604 52.7838 175.995 52.0934 175.592 51.2979C175.116 50.3519 174.942 49.2829 175.093 48.2351C175.113 48.1613 175.107 48.0828 175.076 48.0131C175.043 47.9758 175.001 47.9466 174.955 47.9279C174.909 47.9091 174.859 47.9014 174.809 47.9051L169.89 47.5515C169.432 47.5288 168.976 47.4767 168.524 47.3955C168.259 47.3417 167.559 46.9656 167.306 47.0656C166.838 47.2507 166.715 49.428 166.619 49.9296Z" fill="black"/>
<path d="M171.323 50.4349C175.309 50.4349 178.54 47.2085 178.54 43.2284C178.54 39.2484 175.309 36.022 171.323 36.022C167.337 36.022 164.106 39.2484 164.106 43.2284C164.106 47.2085 167.337 50.4349 171.323 50.4349Z" fill="#A0616A"/>
<path d="M167.631 59.3692C167.988 59.7814 168.417 60.1243 168.899 60.3806C169.4 60.5877 169.939 60.6902 170.482 60.6817C171.783 60.7182 173.193 60.4802 174.098 59.5463C175.265 58.3424 175.227 56.4007 176.141 54.9962C176.215 54.8689 176.315 54.7591 176.436 54.6745C176.589 54.5911 176.762 54.5513 176.937 54.5594C178.092 54.5486 179.098 55.2965 180.005 56.0093C180.433 56.3029 180.799 56.676 181.086 57.108C181.265 57.4578 181.388 57.8337 181.45 58.2218C181.9 60.418 182.046 62.6635 182.191 64.9006C182.271 66.1362 182.351 67.373 182.345 68.6113C182.325 72.6906 181.376 76.7018 180.432 80.6707C180.31 81.1821 180.144 81.7537 179.678 81.9987C179.47 82.0919 179.247 82.1462 179.02 82.159C176.315 82.4762 173.605 82.7937 170.882 82.8356C169.82 82.852 168.758 82.8263 167.696 82.7586C167.513 82.7562 167.332 82.7246 167.159 82.6651C166.925 82.5527 166.723 82.3818 166.574 82.1689C165.101 80.3157 165.015 77.7535 165.024 75.3877C165.047 69.6033 165.254 63.8236 165.645 58.0485C165.677 57.5718 165.684 56.9929 165.34 56.618C166.01 57.6091 166.777 58.5308 167.631 59.3692Z" fill="white"/>
<path d="M166.102 51.0483C165.859 51.4889 164.062 52.5829 163.715 52.9481C161.776 54.9883 158.239 54.9117 156.466 57.097C155.842 57.8658 155.518 58.8319 155.28 59.7923C154.943 61.1506 154.763 62.632 155.327 63.9128C155.871 65.1452 157.014 65.9972 157.791 67.098C158.644 68.3068 159.027 69.7744 159.394 71.2066C159.666 72.2642 159.939 73.3479 159.833 74.4344C159.713 75.6698 159.115 76.801 158.761 77.9909C158.408 79.1809 158.347 80.5982 159.164 81.5333C159.764 82.2203 160.706 82.4927 161.606 82.6459C162.759 82.8189 163.922 82.92 165.088 82.9486C166.117 82.9939 167.251 83.0028 168.042 82.344C168.666 81.8242 168.938 80.9808 168.973 80.1699C169.008 79.3591 168.839 78.5554 168.733 77.7508C168.623 76.9166 168.581 76.0751 168.546 75.2345C168.388 71.4629 168.366 67.6888 168.481 63.9123C168.539 63.1274 168.501 62.3383 168.366 61.5628C168.146 60.5526 167.599 59.6497 167.143 58.7215C166.231 56.9733 165.818 55.0084 165.949 53.0416C166.087 51.0203 166.97 49.4805 166.102 51.0483Z" fill="white"/>
<path d="M176.237 51.2017C176.608 51.5827 177.87 51.7083 178.342 51.9537C178.786 52.1586 179.25 52.3189 179.726 52.4321C181.448 52.9284 183.087 53.6794 184.587 54.6601C184.899 54.8422 185.174 55.0799 185.4 55.3613C185.638 55.7476 185.791 56.1798 185.85 56.6294C186.081 57.7732 186.313 58.9309 186.261 60.0967C186.206 61.3341 185.833 62.5326 185.463 63.7148L184.079 68.1321C183.046 71.4293 182.007 74.7589 181.716 78.2014C181.555 80.1094 181.627 82.0297 181.929 83.9205C181.957 84.0124 181.966 84.1094 181.954 84.2049C181.942 84.3004 181.91 84.3923 181.859 84.4744C181.768 84.5644 181.648 84.6195 181.52 84.6301C180.853 84.7343 180.206 84.3943 179.601 84.0934C177.752 83.1744 175.778 82.5296 173.742 82.1792C174.538 81.0312 175.152 79.7678 175.562 78.4334C175.795 77.5861 175.979 76.7259 176.112 75.8573L176.756 72.1398C177.017 70.7811 177.202 69.4085 177.308 68.0289C177.356 67.5111 177.326 66.989 177.218 66.4803C177.07 65.9962 176.873 65.5283 176.63 65.0838C175.569 62.8804 175.072 60.3659 175.489 57.9568C175.672 56.9026 176.027 55.8469 175.879 54.7872C175.736 53.7684 175.884 52.9766 175.623 51.9683C174.548 47.8285 175.538 50.4848 176.237 51.2017Z" fill="white"/>
<path d="M156.447 60.5807C155.964 61.5828 155.155 62.4365 154.88 63.5144C154.773 64.0182 154.727 64.5331 154.743 65.0478C154.696 65.8236 154.773 66.602 154.971 67.3535C155.125 67.8288 155.375 68.2672 155.555 68.7332C155.806 69.3843 155.917 70.0805 155.883 70.7773C155.834 71.7426 155.506 72.6796 155.48 73.6457C155.44 75.1651 156.144 76.5935 156.83 77.9499C157.003 77.5225 157.267 77.1379 157.605 76.8232C157.942 76.5084 158.344 76.271 158.783 76.1276C159.221 75.9842 159.686 75.9382 160.144 75.9929C160.603 76.0476 161.044 76.2016 161.436 76.4442C161.593 76.2513 161.668 76.0042 161.644 75.7566C161.695 73.9939 161.743 72.2312 161.791 70.4684C161.865 67.7421 161.936 64.9793 161.308 62.3251C161.024 61.1267 160.583 59.9329 159.774 59.0034C159.348 58.514 157.902 57.2248 157.203 57.7731C156.889 58.0197 156.962 58.6909 156.912 59.0308C156.837 59.568 156.68 60.0907 156.447 60.5807Z" fill="white"/>
<path d="M186.403 57.6928C186.597 58.4155 186.681 59.1634 186.65 59.9111C186.659 61.4349 186.639 62.9585 186.589 64.4819C186.597 65.2633 186.497 66.0419 186.292 66.7961C186.136 67.2865 185.895 67.7463 185.733 68.2351C185.25 69.6998 185.514 71.2885 185.556 72.8302C185.585 73.3292 185.542 73.8298 185.429 74.3166C185.174 75.2723 184.488 76.0446 184.01 76.9106C183.555 77.7331 183.281 78.655 182.738 79.4223C182.196 80.1895 181.256 80.7975 180.346 80.562C179.656 80.3835 179.165 79.7736 178.826 79.1476C178.086 77.7712 177.833 76.1856 178.108 74.6477C178.448 72.7765 179.549 71.1166 179.946 69.2565C180.491 66.7023 179.663 64.0666 179.687 61.4551C179.676 61.0457 179.732 60.6373 179.852 60.2458C180.06 59.6493 180.507 59.1729 180.92 58.6945C181.437 58.0967 181.916 57.4682 182.356 56.8125C182.652 56.3721 183.054 55.2392 183.578 55.1451C184.749 54.9348 186.112 56.7897 186.403 57.6928Z" fill="white"/>
<path d="M150.373 83.1524C149.726 82.9899 149.059 82.9191 148.391 82.942C147.69 82.9807 147.006 83.168 146.383 83.4913C145.76 83.8147 145.213 84.2668 144.779 84.8175C144.345 85.3682 144.033 86.0049 143.864 86.6853C143.695 87.3657 143.673 88.0742 143.8 88.7637C143.962 89.5106 144.226 90.2316 144.585 90.9062C145.111 91.9711 145.741 93.0336 146.714 93.716C147.3 94.0912 147.931 94.3912 148.592 94.6089L153.716 96.5364C154.47 96.8199 155.224 97.1035 155.985 97.3664C159.809 98.6864 163.796 99.4779 167.835 99.7189C169.064 99.8339 170.304 99.7712 171.515 99.5328C171.808 99.4946 172.076 99.3498 172.268 99.1262C172.366 98.9563 172.424 98.7664 172.437 98.5709L172.752 96.3669C172.823 96.06 172.813 95.7401 172.725 95.4378C172.581 95.0673 172.219 94.8343 171.874 94.6363C168.505 92.7044 164.572 91.6386 161.737 88.9871C161.069 88.3629 160.511 87.3734 159.7 86.9494C158.78 86.4686 157.697 86.1941 156.746 85.7511C154.668 84.7825 152.625 83.6694 150.373 83.1524Z" fill="#2F2E41"/>
<path opacity="0.1" d="M155.488 86.1237C157.299 86.6904 164.945 90.6163 166.256 91.987C166.08 92.0502 160.12 88.7147 159.941 88.6611C158.302 88.2116 156.696 87.6466 155.137 86.9705C154.826 86.8271 153.119 86.1529 153.196 85.7616C153.284 85.32 155.167 86.0231 155.488 86.1237Z" fill="black"/>
<path d="M178.082 100.862C178.185 100.869 178.287 100.839 178.369 100.778C178.405 100.731 178.432 100.678 178.447 100.622C178.462 100.565 178.466 100.506 178.459 100.448L178.45 97.445C177.586 97.0336 176.618 96.9017 175.669 96.775L171.239 96.1837C171.341 96.1973 170.547 98.0889 170.668 98.3414C170.883 98.7865 172.524 99.181 172.987 99.3912C174.596 100.122 176.269 100.925 178.082 100.862Z" fill="#A0616A"/>
<path d="M164.184 97.4346C163.347 97.5677 162.414 97.6852 161.872 98.3354C161.185 99.1598 161.478 100.389 161.805 101.41C161.825 101.542 161.872 101.668 161.942 101.782C162.011 101.896 162.103 101.994 162.212 102.072C162.32 102.149 162.443 102.204 162.574 102.234C162.704 102.263 162.839 102.266 162.97 102.242C163.733 102.29 164.545 102.328 165.211 101.954C165.513 101.755 165.804 101.54 166.082 101.308C166.573 100.982 167.113 100.735 167.682 100.578C168.728 100.249 169.804 100.028 170.895 99.9165C171.325 99.897 171.75 99.8221 172.16 99.6937C172.366 99.6277 172.553 99.5155 172.707 99.3656C172.862 99.2157 172.98 99.0323 173.052 98.8296C173.206 98.2839 172.889 97.7276 172.584 97.2491C172.233 96.6223 171.777 96.06 171.237 95.5864C170.411 94.9462 170.003 95.4376 169.172 95.8473C167.598 96.6229 165.917 97.1579 164.184 97.4346Z" fill="#A0616A"/>
<path d="M161.998 98.187L156.688 96.6196C156.051 96.3981 155.385 96.2694 154.711 96.2372C154.374 96.2234 154.038 96.2816 153.725 96.408C153.412 96.5344 153.129 96.7261 152.896 96.9701C152.485 97.4528 152.367 98.1124 152.264 98.7381L152.045 100.077C151.898 100.751 151.857 101.445 151.922 102.132C151.957 102.476 152.07 102.807 152.253 103.1C152.436 103.394 152.683 103.642 152.977 103.825C153.711 104.226 154.612 104.03 155.432 103.863C157.089 103.524 158.774 103.344 160.465 103.324C161.101 103.316 161.767 103.324 162.329 103.027C162.655 102.834 162.929 102.564 163.127 102.241C163.325 101.919 163.441 101.553 163.465 101.175C163.569 100.032 163.188 98.5381 161.998 98.187Z" fill="#2F2E41"/>
<path d="M180.17 96.8211C180.858 96.7006 181.466 96.3099 182.125 96.0793C183.054 95.7547 184.06 95.7547 185.044 95.7583C185.406 95.7253 185.769 95.798 186.09 95.9676C186.524 96.2556 186.635 96.8322 186.708 97.3468L187.153 100.452C187.272 101.031 187.284 101.627 187.189 102.211C187.059 102.786 186.666 103.341 186.094 103.489C185.4 103.669 184.719 103.226 184.063 102.935C182.425 102.208 180.519 102.394 178.811 101.85C178.647 101.818 178.493 101.751 178.357 101.654C178.222 101.557 178.108 101.433 178.025 101.289C177.966 101.117 177.945 100.934 177.963 100.753C177.993 99.7545 177.782 98.3918 178.083 97.438C178.353 96.5802 179.401 96.8211 180.17 96.8211Z" fill="#2F2E41"/>
<path d="M191.408 81.9026C192.469 81.6369 193.569 81.5619 194.657 81.681C195.525 81.7766 196.42 82.0179 197.054 82.6181C197.826 83.3487 198.074 84.4786 198.094 85.5404C198.128 87.6551 197.426 89.716 196.107 91.371C195.785 91.7896 195.402 92.1577 194.971 92.4631C194.506 92.7537 194.01 92.9922 193.493 93.1744L182.018 97.6938C179 98.8827 175.97 100.075 172.822 100.859C172.736 100.9 172.642 100.924 172.547 100.929C172.451 100.934 172.356 100.92 172.266 100.887C172.176 100.855 172.094 100.805 172.023 100.74C171.953 100.675 171.897 100.597 171.857 100.51C170.852 99.0758 170.009 97.5352 169.343 95.916C169.311 95.8775 169.289 95.832 169.279 95.7834C169.269 95.7347 169.27 95.6843 169.284 95.6364C169.297 95.5885 169.322 95.5446 169.356 95.5083C169.39 95.472 169.433 95.4444 169.48 95.4279L177.595 90.7715C178.191 90.4615 178.745 90.0798 179.247 89.6349C179.598 89.2955 179.885 88.8962 180.095 88.4559C180.264 88.105 180.279 87.277 180.494 87.0177C180.705 86.7638 181.424 86.7435 181.757 86.6436C182.226 86.5002 182.685 86.3269 183.131 86.1248C184.947 85.3138 186.563 84.1354 188.304 83.1858C189.28 82.6285 190.323 82.1973 191.408 81.9026Z" fill="#2F2E41"/>
<path opacity="0.1" d="M186.807 85.3801C185.412 86.4258 183.607 87.3871 182.225 88.4604C181.753 88.8267 173.891 93.2407 173.78 93.8269C175.069 94.0439 183.282 88.3066 184.457 87.7341C185.632 87.1617 186.674 86.3543 187.706 85.553C187.969 85.3487 189.084 84.7348 188.329 84.5067C187.903 84.3781 187.121 85.171 186.807 85.3801Z" fill="black"/>
<path d="M177.213 51.3029H164.973C164.476 51.3029 163.999 51.5001 163.647 51.8513C163.295 52.2024 163.098 52.6786 163.098 53.1751V53.8608H162.965V55.394H163.098V56.4673H162.965V57.3873H163.098V68.7008C163.098 69.1973 163.295 69.6735 163.647 70.0247C163.999 70.3758 164.476 70.573 164.973 70.573H177.213C177.71 70.573 178.187 70.3758 178.538 70.0247C178.89 69.6735 179.088 69.1973 179.088 68.7008V53.1751C179.088 52.6786 178.89 52.2024 178.538 51.8512C178.187 51.5001 177.71 51.3029 177.213 51.3029Z" fill="#D0CDE1"/>
<path d="M179.158 36.8413L172.95 33.594L164.377 34.9225L162.603 42.7451L167.018 42.5753L168.252 39.7015V42.5282L170.289 42.4499L171.472 37.8743L172.211 42.7451L179.453 42.5974L179.158 36.8413Z" fill="#2F2E41"/>
<path d="M158.072 80.8894C158.352 81.3661 158.752 81.7626 159.23 82.0406C159.545 82.1838 159.887 82.2535 160.233 82.2443C160.578 82.2351 160.916 82.1471 161.222 81.9873C161.834 81.66 162.334 81.1592 162.66 80.548C163.335 79.3584 163.474 77.9348 163.39 76.5702C163.306 75.2056 163.014 73.8619 162.885 72.5008C162.791 71.5114 162.784 70.516 162.776 69.5222C162.753 69.3132 162.797 69.1022 162.901 68.9198C163.082 68.7407 163.315 68.6243 163.567 68.588C164.928 68.184 165.832 66.9095 166.48 65.6473C166.913 64.8044 167.289 63.8831 167.206 62.9396C167.122 61.9961 166.443 61.0457 165.5 60.9494C164.722 60.8701 164.003 61.3635 163.442 61.9073C162.027 63.2877 161.117 65.1033 160.859 67.0622C160.736 68.0215 160.771 69.0069 160.51 69.9382C159.952 71.9267 158.206 73.1458 157.336 74.9351C156.378 76.9067 156.907 79.145 158.072 80.8894Z" fill="#A0616A"/>
<path d="M183.76 73.2927C183.561 73.7539 183.272 74.1707 182.909 74.5185C182.547 74.8663 182.118 75.138 181.649 75.3177C181.066 75.5517 180.422 75.5911 179.814 75.4299C179.513 75.3464 179.235 75.1947 179.002 74.9865C178.769 74.7783 178.587 74.5193 178.47 74.2295C178.377 73.9376 178.326 73.634 178.319 73.3278C178.232 71.9869 178.265 70.6051 178.753 69.3527C178.941 68.8696 179.195 68.4115 179.344 67.9149C179.489 67.3413 179.564 66.752 179.566 66.1602L179.726 62.5014C179.753 62.2358 179.734 61.9676 179.672 61.7081C179.512 61.1787 179.016 60.8346 178.562 60.5189C177.464 59.7565 176.379 58.8667 175.847 57.6415C175.664 57.2726 175.598 56.8567 175.659 56.4496C175.809 55.7231 176.543 55.2528 177.269 55.0943C177.744 54.9906 178.235 54.984 178.712 55.0748C179.19 55.1657 179.644 55.3521 180.047 55.6229C180.451 55.8936 180.795 56.2431 181.06 56.6503C181.324 57.0575 181.503 57.514 181.586 57.9922C181.658 58.4051 181.657 58.8269 181.699 59.2438C181.788 60.1283 182.07 60.9809 182.246 61.8524C182.679 63.9989 182.454 66.2178 182.883 68.364C183.241 70.1584 184.592 71.3293 183.76 73.2927Z" fill="#A0616A"/>
<path d="M171.257 59.5339C172.105 59.5339 172.792 58.8475 172.792 58.0007C172.792 57.1538 172.105 56.4674 171.257 56.4674C170.409 56.4674 169.721 57.1538 169.721 58.0007C169.721 58.8475 170.409 59.5339 171.257 59.5339Z" fill="#1769AA"/>
<path d="M4.53012 113.107C7.03171 113.107 9.05964 111.082 9.05964 108.584C9.05964 106.086 7.03171 104.061 4.53012 104.061C2.02853 104.061 0.000595093 106.086 0.000595093 108.584C0.000595093 111.082 2.02853 113.107 4.53012 113.107Z" fill="#2F2E41"/>
<path d="M20.9489 122.012L18.6674 119.797L14.0862 121.218L14.5262 126.515L23.9459 126.078L21.0521 122.152L20.9489 122.012Z" fill="#FBBEBE"/>
<path d="M15.9591 121.966C20.0035 121.966 23.2821 118.692 23.2821 114.654C23.2821 110.615 20.0035 107.341 15.9591 107.341C11.9147 107.341 8.6361 110.615 8.6361 114.654C8.6361 118.692 11.9147 121.966 15.9591 121.966Z" fill="#FBBEBE"/>
<path d="M61.4207 131.397C61.4207 131.397 70.4171 146.836 72.5582 149.153C73.5764 150.294 74.6611 151.373 75.8068 152.386C75.8068 152.386 74.8001 155.72 73.197 155.601C72.2833 155.546 71.3873 155.326 70.5526 154.951C70.5526 154.951 69.8371 153.098 68.5891 152.286C67.341 151.474 57.1445 141.457 57.3828 138.256C57.6212 135.054 61.4207 131.397 61.4207 131.397Z" fill="#2F2E41"/>
<path d="M29.3815 153.428C29.3815 153.428 38.9738 160.863 52.0099 153.877L53.1334 153.052C53.1334 153.052 51.2375 157.31 51.0616 158.465C50.8576 159.804 45.9216 167.647 45.1161 168.022C44.3106 168.398 44.1331 168.745 44.1331 168.745L47.5514 172.502L48.8152 171.573C48.8152 171.573 53.7433 164.601 55.1847 163.325C56.6261 162.05 63.4935 148.897 63.4935 148.897C63.4935 148.897 66.1191 143.941 59.5664 143.568C53.0137 143.196 49.9984 144.979 49.9984 144.979L38.369 146.824L29.3815 153.428Z" fill="#2F2E41"/>
<path d="M75.9182 151.656L80.7699 155.008C80.7699 155.008 86.9597 156.945 83.1469 158.233C79.334 159.522 69.2864 159.988 69.0585 158.21C68.8305 156.432 69.4548 153.634 69.956 153.787C70.4573 153.94 73.9364 154.842 75.9182 151.656Z" fill="#2F2E41"/>
<path d="M49.2448 170.421L50.1428 175.346C50.1428 175.346 52.6962 180.222 49.6304 178.709C46.5645 177.196 40.2481 171.449 41.1808 170.244C42.1135 169.039 44.1722 167.732 44.3813 168.125C44.5903 168.517 46.1377 171.146 49.2448 170.421Z" fill="#2F2E41"/>
<path d="M39.9934 148.44C39.9934 148.44 33.4728 156.042 29.5141 154.196C25.5554 152.349 9.35943 130.96 11.2087 127.007C13.058 123.054 13.6781 123.896 13.6781 123.896L22.0406 124.668L19.6345 120.816C19.6345 120.816 20.7579 119.99 21.8284 121.149C22.899 122.308 27.1969 125.202 28.6942 129.29C30.1914 133.378 34.5873 133.174 34.5873 133.174L39.9934 148.44Z" fill="white"/>
<path d="M66.3252 132.765L55.0221 144.746L44.8967 126.895L54.5226 115.282L66.3252 132.765Z" fill="#3F3D56"/>
<path d="M65.472 132.635L55.2632 143.164L46.0123 126.94L54.4962 116.274L65.472 132.635Z" fill="white"/>
<path d="M54.4685 144.288L55.0223 144.746L54.6672 145.439L38.8619 150.136L38.7125 149.596L39.4316 148.853L54.4685 144.288Z" fill="#B3B3B3"/>
<path d="M55.1627 144.643L38.7959 149.753L28.819 130.928L44.8969 126.895L55.1627 144.643Z" fill="#D0CDE1"/>
<path d="M53.9305 142.09L53.2283 142.605L45.4351 129.093L46.2405 128.718L53.9305 142.09Z" fill="#3F3D56"/>
<path d="M52.3193 142.841L45.3958 144.903L37.5363 131.007L44.3857 129.432L52.3193 142.841Z" fill="#3F3D56"/>
<path d="M32.8146 132.531L34.2481 132.126C34.2481 132.126 42.2422 131.224 42.3589 133.732C42.4756 136.24 33.1751 135.076 33.1751 135.076L31.935 133.394L32.8146 132.531Z" fill="#FBBEBE"/>
<path d="M39.8262 143.807L41.8214 142.99C41.8214 142.99 47.844 140.293 46.1163 138.537C44.3886 136.78 39.0603 139.831 39.0603 139.831L38.0402 140.797L39.8262 143.807Z" fill="#FBBEBE"/>
<path d="M38.0482 139.926C38.0482 139.926 41.2969 143.159 40.5577 143.919C39.8184 144.678 27.6966 154.667 24.6917 151.471C21.6868 148.275 7.04645 132.228 12.7432 130.852C18.44 129.476 19.9452 132.693 19.9452 132.693L27.4656 145.541L38.0482 139.926Z" fill="white"/>
<path d="M28.3209 130.105L33.6573 131.912L33.5702 135.759L27.9263 135.151L28.3209 130.105Z" fill="white"/>
<path opacity="0.2" d="M33.1305 141.919L27.3809 145.279L20.8118 135.191L27.1529 143.501L33.1305 141.919Z" fill="black"/>
<path d="M12.7447 121.239C17.5594 121.239 21.4626 117.342 21.4626 112.534C21.4626 107.726 17.5594 103.829 12.7447 103.829C7.92997 103.829 4.02685 107.726 4.02685 112.534C4.02685 117.342 7.92997 121.239 12.7447 121.239Z" fill="#2F2E41"/>
<path d="M59.8495 133.525L53.7452 124.608L56.3328 121.409L62.6757 130.583L59.8495 133.525Z" fill="#1769AA"/>
<path d="M59.6773 137.11L50.3842 123.619L50.8426 123.066L60.0922 136.589L59.6773 137.11Z" fill="#E6E6E6"/>
<path d="M58.4798 138.422L49.1867 124.931L49.6451 124.378L58.8947 137.901L58.4798 138.422Z" fill="#E6E6E6"/>
<path d="M57.4597 139.388L48.1666 125.897L48.6249 125.344L57.8746 138.867L57.4597 139.388Z" fill="#E6E6E6"/>
<path d="M16.6052 106.722H19.3021C20.6675 106.722 21.9771 107.264 22.9426 108.228C23.9082 109.192 24.4506 110.5 24.4506 111.863H16.6052V106.722Z" fill="#2F2E41"/>
<path d="M53.7542 103.45L53.2653 103.414C53.2463 103.668 53.2328 103.923 53.2166 104.178L51.0222 104.105L53.3241 108.412L55.9094 104.268L53.7068 104.194C53.7226 103.946 53.7357 103.698 53.7542 103.45Z" fill="#3F3D56"/>
<path d="M66.6257 68.3398L67.0155 68.6369C67.6002 67.8723 68.2108 67.1089 68.8306 66.368L68.4542 66.0541C67.8299 66.8005 67.2147 67.5695 66.6257 68.3398Z" fill="#3F3D56"/>
<path d="M70.3818 63.8512L70.7438 64.1813C71.3943 63.47 72.0697 62.7635 72.751 62.0813L72.4038 61.7356C71.7174 62.4227 71.0371 63.1345 70.3818 63.8512Z" fill="#3F3D56"/>
<path d="M74.5168 59.7109L74.8484 60.0717C75.5598 59.4194 76.2944 58.7751 77.0315 58.1566L76.7162 57.7817C75.9735 58.4047 75.2335 59.0539 74.5168 59.7109Z" fill="#3F3D56"/>
<path d="M63.279 73.1431L63.6935 73.4047C64.2088 72.5905 64.75 71.7761 65.3019 70.9839L64.8994 70.7042C64.3434 71.5023 63.7982 72.3229 63.279 73.1431Z" fill="#3F3D56"/>
<path d="M78.9981 55.951L79.2967 56.3393C80.0628 55.7519 80.851 55.1748 81.6393 54.6239L81.3582 54.2227C80.5639 54.7778 79.7699 55.3592 78.9981 55.951Z" fill="#3F3D56"/>
<path d="M60.3692 78.2252L60.8052 78.449C61.247 77.5912 61.7141 76.7317 62.1935 75.8945L61.7678 75.6514C61.2848 76.4949 60.8142 77.3608 60.3692 78.2252Z" fill="#3F3D56"/>
<path d="M55.6398 92.0071L55.165 91.8851C54.9227 92.8245 54.6984 93.7825 54.4982 94.7326L54.978 94.8335C55.1768 93.8906 55.3994 92.9395 55.6398 92.0071Z" fill="#3F3D56"/>
<path d="M83.7914 52.6007L84.0545 53.0138C84.8673 52.4974 85.7028 51.9921 86.5382 51.5119L86.2935 51.0876C85.4519 51.5715 84.6101 52.0805 83.7914 52.6007Z" fill="#3F3D56"/>
<path d="M54.443 97.6865L53.9592 97.6072C53.8017 98.563 53.6635 99.537 53.5482 100.502L54.0352 100.56C54.1495 99.6022 54.2868 98.6354 54.443 97.6865Z" fill="#3F3D56"/>
<path d="M57.9218 83.5478L58.376 83.7321C58.7396 82.8385 59.1285 81.9406 59.532 81.0633L59.0864 80.8589C58.6799 81.7429 58.288 82.6475 57.9218 83.5478Z" fill="#3F3D56"/>
<path d="M55.9579 89.0702L56.4269 89.2132C56.7097 88.2893 57.017 87.3597 57.3403 86.4504L56.8783 86.2866C56.5525 87.2026 56.2428 88.1392 55.9579 89.0702Z" fill="#3F3D56"/>
<path d="M116.96 42.8415C117.922 42.8083 118.9 42.795 119.869 42.8041L119.873 42.3145C118.898 42.3054 117.912 42.3186 116.944 42.3521L116.96 42.8415Z" fill="#3F3D56"/>
<path d="M88.8597 49.687L89.0853 50.1216C89.9416 49.6786 90.8181 49.2494 91.6908 48.8457L91.4846 48.4015C90.6055 48.8081 89.7224 49.2406 88.8597 49.687Z" fill="#3F3D56"/>
<path d="M128.563 43.4521C129.519 43.5873 130.485 43.7455 131.432 43.9226L131.522 43.4413C130.568 43.2629 129.595 43.1034 128.631 42.9672L128.563 43.4521Z" fill="#3F3D56"/>
<path d="M134.278 44.5197C135.217 44.7387 136.165 44.9821 137.094 45.243L137.227 44.7716C136.29 44.5087 135.336 44.2637 134.39 44.043L134.278 44.5197Z" fill="#3F3D56"/>
<path d="M139.874 46.0909C140.79 46.3925 141.712 46.7191 142.615 47.0617L142.789 46.6041C141.879 46.2589 140.951 45.9298 140.028 45.6259L139.874 46.0909Z" fill="#3F3D56"/>
<path d="M122.776 42.8929C123.741 42.9435 124.717 43.0162 125.676 43.1087L125.723 42.6214C124.757 42.5281 123.774 42.4549 122.802 42.404L122.776 42.8929Z" fill="#3F3D56"/>
<path d="M111.106 42.8102L111.166 43.2962C112.122 43.1788 113.095 43.0809 114.058 43.0054L114.02 42.5172C113.049 42.5933 112.069 42.692 111.106 42.8102Z" fill="#3F3D56"/>
<path d="M99.6674 45.2599L99.8125 45.7275C100.734 45.4426 101.674 45.1746 102.608 44.9309L102.484 44.4573C101.543 44.7027 100.596 44.9727 99.6674 45.2599Z" fill="#3F3D56"/>
<path d="M94.1631 47.234L94.3492 47.687C95.2407 47.3217 96.1513 46.9721 97.0559 46.6475L96.8902 46.1868C95.9787 46.5136 95.0613 46.866 94.1631 47.234Z" fill="#3F3D56"/>
<path d="M105.332 43.7806L105.435 44.2595C106.377 44.0578 107.338 43.8743 108.29 43.7142L108.209 43.2313C107.249 43.3927 106.281 43.5775 105.332 43.7806Z" fill="#3F3D56"/>
<path d="M149.931 50.0891L147.191 46.0455L146.227 48.0259C145.994 47.9219 145.762 47.8157 145.529 47.7149L145.334 48.1644C145.562 48.2627 145.787 48.3658 146.013 48.4665L145.054 50.4375L149.931 50.0891Z" fill="#3F3D56"/>
</g>
<defs>
<clipPath id="clip0">
<rect width="222" height="179" fill="white"/>
</clipPath>
</defs>
</svg>
