<svg width="64" height="64" viewBox="0 0 64 64" fill="none" xmlns="http://www.w3.org/2000/svg">
<g clip-path="url(#clip0)">
<path d="M60.7998 10.1001H59.7334V9.0332C59.7334 7.26611 58.3008 5.8335 56.5332 5.8335H18.1333V2.6333C18.1333 1.45508 17.1782 0.5 16 0.5H2.1333C0.955078 0.5 0 1.45508 0 2.6333V13.2998C0.0024414 14.0586 0.408691 14.7588 1.06689 15.1367V39.4331C1.07227 42.8193 3.20801 45.8359 6.3999 46.9663V55.9668C6.3999 57.7339 7.83252 59.1665 9.6001 59.1665H29.9731C30.478 61.6523 32.6636 63.4385 35.2002 63.4385C37.7363 63.4385 39.9219 61.6523 40.4268 59.1665H60.7998C62.5674 59.1665 64 57.7339 64 55.9668V13.2998C64 11.5327 62.5674 10.1001 60.7998 10.1001ZM34.1333 7.9668V45.2998C34.1333 45.8892 34.6108 46.3667 35.2002 46.3667C35.7891 46.3667 36.2666 45.8892 36.2666 45.2998V7.9668H56.5332C57.1226 7.9668 57.6001 8.44434 57.6001 9.0332V51.7002C57.6001 52.2891 57.1226 52.7666 56.5332 52.7666H39.4668C37.6992 52.7666 36.2666 51.334 36.2666 49.5669C36.2666 48.9775 35.7891 48.5 35.2002 48.5C34.6108 48.5 34.1333 48.9775 34.1333 49.5669C34.1333 51.334 32.7007 52.7666 30.9331 52.7666H13.8667C13.2773 52.7666 12.7998 52.2891 12.7998 51.7002V46.5034C15.4224 45.1196 17.0645 42.3984 17.0669 39.4331V15.1367C17.7246 14.7588 18.1309 14.0586 18.1333 13.2998V7.9668H34.1333ZM2.1333 2.6333H16V13.2998H2.1333V2.6333ZM3.2002 39.4331V15.4331H14.9331V39.4331C14.9331 42.6733 12.3066 45.2998 9.06689 45.2998C5.82666 45.2998 3.2002 42.6733 3.2002 39.4331ZM61.8667 55.9668C61.8667 56.5557 61.3892 57.0332 60.7998 57.0332H39.4668C38.8774 57.0332 38.3999 57.5107 38.3999 58.1001C38.3999 59.8672 36.9673 61.2998 35.2002 61.2998C33.4326 61.2998 32 59.8672 32 58.1001C32 57.5107 31.5225 57.0332 30.9331 57.0332H9.6001C9.01074 57.0332 8.5332 56.5557 8.5332 55.9668V47.4067C8.71045 47.4185 8.88623 47.4331 9.06689 47.4331C9.604 47.4336 10.1401 47.3799 10.6665 47.2725V51.7002C10.6665 53.4673 12.0991 54.8999 13.8667 54.8999H30.9331C32.6187 54.8955 34.2017 54.0913 35.2002 52.7334C36.1982 54.0913 37.7812 54.8955 39.4668 54.8999H56.5332C58.3008 54.8999 59.7334 53.4673 59.7334 51.7002V12.2334H60.7998C61.3892 12.2334 61.8667 12.7109 61.8667 13.2998V55.9668Z" fill="black"/>
<path d="M40.8457 33.2539C41.0459 33.4541 41.3169 33.5664 41.6001 33.5669H45.8667C46.1494 33.5664 46.4209 33.4541 46.6206 33.2539L48.7539 31.1206C48.9541 30.9209 49.0664 30.6494 49.0669 30.3667V27.1665H52.2666C52.5493 27.1665 52.8208 27.0542 53.021 26.854L55.1543 24.7207C55.354 24.521 55.4668 24.2495 55.4668 23.9668V19.7002C55.4668 19.417 55.354 19.146 55.1543 18.9458L53.021 16.8125C52.8208 16.6123 52.5493 16.5 52.2666 16.5H49.0669V13.2998C49.0664 13.0171 48.9541 12.7461 48.7539 12.5459L46.6206 10.4126C46.4209 10.2124 46.1494 10.1001 45.8667 10.1001H41.6001C41.3169 10.1001 41.0459 10.2124 40.8457 10.4126L38.7124 12.5459C38.5127 12.7461 38.3999 13.0171 38.3999 13.2998V17.5669C38.3999 17.8496 38.5127 18.1206 38.7124 18.3208L40.8457 20.4541C41.0459 20.6543 41.3169 20.7666 41.6001 20.7666H44.7998V22.8999H41.6001C41.3169 22.8999 41.0459 23.0127 40.8457 23.2124L38.7124 25.3457C38.5127 25.5459 38.3999 25.8169 38.3999 26.1001V30.3667C38.3999 30.6494 38.5127 30.9209 38.7124 31.1206L40.8457 33.2539ZM53.3335 20.1416V23.5249L51.8252 25.0332H48.4414L46.9331 23.5249V20.1416L48.4414 18.6333H51.8252L53.3335 20.1416ZM40.5332 17.125V13.7417L42.0415 12.2334H45.4253L46.9331 13.7417V17.125L45.4253 18.6333H42.0415L40.5332 17.125ZM40.5332 26.5415L42.0415 25.0332H45.4253L46.9331 26.5415V29.9253L45.4253 31.4331H42.0415L40.5332 29.9253V26.5415Z" fill="black"/>
<path d="M39.4668 38.8999H49.0669C49.6558 38.8999 50.1333 38.4224 50.1333 37.8335C50.1333 37.2441 49.6558 36.7666 49.0669 36.7666H39.4668C38.8774 36.7666 38.3999 37.2441 38.3999 37.8335C38.3999 38.4224 38.8774 38.8999 39.4668 38.8999Z" fill="black"/>
<path d="M54.3999 36.7666H53.3335C52.7441 36.7666 52.2666 37.2441 52.2666 37.8335C52.2666 38.4224 52.7441 38.8999 53.3335 38.8999H54.3999C54.9893 38.8999 55.4668 38.4224 55.4668 37.8335C55.4668 37.2441 54.9893 36.7666 54.3999 36.7666Z" fill="black"/>
<path d="M39.4668 47.4331H49.0669C49.6558 47.4331 50.1333 46.9556 50.1333 46.3667C50.1333 45.7773 49.6558 45.2998 49.0669 45.2998H39.4668C38.8774 45.2998 38.3999 45.7773 38.3999 46.3667C38.3999 46.9556 38.8774 47.4331 39.4668 47.4331Z" fill="black"/>
<path d="M54.3999 45.2998H53.3335C52.7441 45.2998 52.2666 45.7773 52.2666 46.3667C52.2666 46.9556 52.7441 47.4331 53.3335 47.4331H54.3999C54.9893 47.4331 55.4668 46.9556 55.4668 46.3667C55.4668 45.7773 54.9893 45.2998 54.3999 45.2998Z" fill="black"/>
<path d="M54.3999 41.0332H44.7998C44.2109 41.0332 43.7334 41.5107 43.7334 42.1001C43.7334 42.689 44.2109 43.1665 44.7998 43.1665H54.3999C54.9893 43.1665 55.4668 42.689 55.4668 42.1001C55.4668 41.5107 54.9893 41.0332 54.3999 41.0332Z" fill="black"/>
<path d="M39.4668 43.1665H40.5332C41.1226 43.1665 41.6001 42.689 41.6001 42.1001C41.6001 41.5107 41.1226 41.0332 40.5332 41.0332H39.4668C38.8774 41.0332 38.3999 41.5107 38.3999 42.1001C38.3999 42.689 38.8774 43.1665 39.4668 43.1665Z" fill="black"/>
<path d="M6.3999 17.5669C5.81104 17.5669 5.3335 18.0444 5.3335 18.6333V33.5669C5.3335 34.1558 5.81104 34.6333 6.3999 34.6333C6.98926 34.6333 7.4668 34.1558 7.4668 33.5669V18.6333C7.4668 18.0444 6.98926 17.5669 6.3999 17.5669Z" fill="black"/>
<path d="M6.3999 36.7666C5.81104 36.7666 5.3335 37.2441 5.3335 37.8335V39.9668C5.3335 40.5557 5.81104 41.0332 6.3999 41.0332C6.98926 41.0332 7.4668 40.5557 7.4668 39.9668V37.8335C7.4668 37.2441 6.98926 36.7666 6.3999 36.7666Z" fill="black"/>
<path d="M20.2666 20.7666H23.4668C24.0557 20.7666 24.5332 20.2891 24.5332 19.7002C24.5332 19.1108 24.0557 18.6333 23.4668 18.6333H20.2666C19.6777 18.6333 19.2002 19.1108 19.2002 19.7002C19.2002 20.2891 19.6777 20.7666 20.2666 20.7666Z" fill="black"/>
<path d="M27.7334 20.7666H30.9331C31.5225 20.7666 32 20.2891 32 19.7002C32 19.1108 31.5225 18.6333 30.9331 18.6333H27.7334C27.144 18.6333 26.6665 19.1108 26.6665 19.7002C26.6665 20.2891 27.144 20.7666 27.7334 20.7666Z" fill="black"/>
<path d="M20.2666 25.0332H23.4668C24.0557 25.0332 24.5332 24.5557 24.5332 23.9668C24.5332 23.3774 24.0557 22.8999 23.4668 22.8999H20.2666C19.6777 22.8999 19.2002 23.3774 19.2002 23.9668C19.2002 24.5557 19.6777 25.0332 20.2666 25.0332Z" fill="black"/>
<path d="M27.7334 25.0332H30.9331C31.5225 25.0332 32 24.5557 32 23.9668C32 23.3774 31.5225 22.8999 30.9331 22.8999H27.7334C27.144 22.8999 26.6665 23.3774 26.6665 23.9668C26.6665 24.5557 27.144 25.0332 27.7334 25.0332Z" fill="black"/>
<path d="M20.2666 29.2998H23.4668C24.0557 29.2998 24.5332 28.8223 24.5332 28.2334C24.5332 27.644 24.0557 27.1665 23.4668 27.1665H20.2666C19.6777 27.1665 19.2002 27.644 19.2002 28.2334C19.2002 28.8223 19.6777 29.2998 20.2666 29.2998Z" fill="black"/>
<path d="M27.7334 29.2998H30.9331C31.5225 29.2998 32 28.8223 32 28.2334C32 27.644 31.5225 27.1665 30.9331 27.1665H27.7334C27.144 27.1665 26.6665 27.644 26.6665 28.2334C26.6665 28.8223 27.144 29.2998 27.7334 29.2998Z" fill="black"/>
<path d="M20.2666 33.5669H23.4668C24.0557 33.5669 24.5332 33.0889 24.5332 32.5C24.5332 31.9111 24.0557 31.4331 23.4668 31.4331H20.2666C19.6777 31.4331 19.2002 31.9111 19.2002 32.5C19.2002 33.0889 19.6777 33.5669 20.2666 33.5669Z" fill="black"/>
<path d="M27.7334 33.5669H30.9331C31.5225 33.5669 32 33.0889 32 32.5C32 31.9111 31.5225 31.4331 30.9331 31.4331H27.7334C27.144 31.4331 26.6665 31.9111 26.6665 32.5C26.6665 33.0889 27.144 33.5669 27.7334 33.5669Z" fill="black"/>
<path d="M20.2666 37.8335H23.4668C24.0557 37.8335 24.5332 37.356 24.5332 36.7666C24.5332 36.1777 24.0557 35.7002 23.4668 35.7002H20.2666C19.6777 35.7002 19.2002 36.1777 19.2002 36.7666C19.2002 37.356 19.6777 37.8335 20.2666 37.8335Z" fill="black"/>
<path d="M27.7334 37.8335H30.9331C31.5225 37.8335 32 37.356 32 36.7666C32 36.1777 31.5225 35.7002 30.9331 35.7002H27.7334C27.144 35.7002 26.6665 36.1777 26.6665 36.7666C26.6665 37.356 27.144 37.8335 27.7334 37.8335Z" fill="black"/>
</g>
<defs>
<clipPath id="clip0">
<rect width="64" height="64" fill="white"/>
</clipPath>
</defs>
</svg>
