<svg width="64" height="64" viewBox="0 0 64 64" fill="none" xmlns="http://www.w3.org/2000/svg">
<g clip-path="url(#clip0)">
<path d="M8.98248 23.5789C5.26761 23.5789 2.24561 26.6007 2.24561 30.3157C2.24561 34.0307 5.26748 37.0526 8.98248 37.0526C12.6974 37.0526 15.7194 34.0307 15.7194 30.3157C15.7194 26.6007 12.6974 23.5789 8.98248 23.5789ZM8.98248 34.8069C6.50548 34.8069 4.49123 32.7921 4.49123 30.3156C4.49123 27.8391 6.50548 25.8244 8.98248 25.8244C11.4595 25.8244 13.4737 27.8391 13.4737 30.3156C13.4737 32.7921 11.4594 34.8069 8.98248 34.8069Z" fill="black"/>
<path d="M55.0174 23.5789C51.3025 23.5789 48.2805 26.6007 48.2805 30.3157C48.2805 34.0307 51.3024 37.0526 55.0174 37.0526C58.7323 37.0526 61.7543 34.0307 61.7543 30.3157C61.7543 26.6007 58.7324 23.5789 55.0174 23.5789ZM55.0174 34.8069C52.5404 34.8069 50.5261 32.7921 50.5261 30.3156C50.5261 27.8391 52.5404 25.8244 55.0174 25.8244C57.4944 25.8244 59.5086 27.8391 59.5086 30.3156C59.5086 32.7921 57.4944 34.8069 55.0174 34.8069Z" fill="black"/>
<path d="M32.5613 0C28.8465 0 25.8245 3.02188 25.8245 6.73688C25.8245 10.4519 28.8463 13.4738 32.5613 13.4738C36.2763 13.4738 39.2982 10.4519 39.2982 6.73688C39.2982 3.02188 36.2763 0 32.5613 0ZM32.5613 11.2281C30.0843 11.2281 28.0701 9.21338 28.0701 6.73688C28.0701 4.2605 30.0843 2.24563 32.5613 2.24563C35.0383 2.24563 37.0526 4.26038 37.0526 6.73688C37.0526 9.21325 35.0383 11.2281 32.5613 11.2281Z" fill="black"/>
<path d="M15.7171 51.4314C16.8729 50.058 17.9649 48.7604 17.9649 47.1578C17.9649 42.2049 13.9353 38.1753 8.98238 38.1753C4.02962 38.1754 0 42.2049 0 47.1578C0 48.7603 1.03075 50.058 2.18637 51.4314C3.068 52.4785 4.07012 53.6655 4.6315 55.1145V55.1152C5.19287 56.0198 4.92863 57.2467 4.77738 58.4337C4.57888 60.0005 4.40462 61.6212 5.44075 62.7972C6.1535 63.6063 7.318 63.9999 8.96712 63.9999C10.6163 63.9999 11.773 63.6063 12.4858 62.797C13.5219 61.621 13.3207 60.0004 13.1222 58.4335C12.971 57.2465 12.8171 56.0197 13.2086 55.1144C13.8348 53.6655 14.8355 52.4785 15.7171 51.4314ZM11.1491 54.2237C10.5142 55.6924 10.7181 57.2988 10.898 58.716C11.034 59.7884 11.1744 60.8975 10.8091 61.3125C10.558 61.5977 9.90888 61.7544 8.98238 61.7544C8.05587 61.7544 7.40675 61.5977 7.15562 61.3125C6.7905 60.8975 6.9615 59.7884 7.0975 58.716C7.27737 57.2988 7.4385 55.6924 6.87712 54.2237V54.2242C6.035 52.4719 4.97687 51.1507 3.99662 49.9852C3.07337 48.8887 2.26087 47.9413 2.26087 47.1579C2.26087 43.443 5.27512 40.421 8.99 40.421C12.7049 40.421 15.723 43.4429 15.723 47.1579C15.723 47.9414 14.9239 48.8887 14.0006 49.9852C13.0205 51.1507 11.9058 52.4719 11.1491 54.2237Z" fill="black"/>
<path d="M61.7522 51.4314C62.9078 50.058 63.9999 48.7603 63.9999 47.1578C63.9999 42.2049 59.9703 38.1753 55.0174 38.1753C50.0645 38.1753 46.0349 42.2049 46.0349 47.1578C46.0349 48.7603 47.0657 50.058 48.2213 51.4314C49.1029 52.4785 50.105 53.6655 50.6664 55.1145V55.1152C51.2278 56.0198 50.9635 57.2467 50.8123 58.4337C50.6138 60.0005 50.4395 61.6212 51.4757 62.7972C52.1884 63.6064 53.3529 64 55.002 64C56.6512 64 57.8079 63.6064 58.5207 62.7972C59.5568 61.6212 59.3557 60.0005 59.1572 58.4337C59.0059 57.2467 58.8521 56.0198 59.2436 55.1145C59.8697 53.6655 60.8706 52.4785 61.7522 51.4314ZM57.1842 54.2237C56.5493 55.6924 56.7532 57.2988 56.9331 58.716C57.0691 59.7884 57.2094 60.8975 56.8442 61.3125C56.5931 61.5977 55.9439 61.7544 55.0174 61.7544C54.0909 61.7544 53.4418 61.5977 53.1907 61.3125C52.8255 60.8975 52.9965 59.7884 53.1325 58.716C53.3124 57.2988 53.4735 55.6924 52.9122 54.2237V54.2242C52.07 52.4719 51.0119 51.1507 50.0317 49.9852C49.1084 48.8887 48.2959 47.9413 48.2959 47.1579C48.2959 43.443 51.3102 40.421 55.025 40.421C58.7399 40.421 61.7581 43.4429 61.7581 47.1579C61.7581 47.9414 60.9589 48.8887 60.0357 49.9852C59.0556 51.1507 57.9407 52.4719 57.1842 54.2237Z" fill="black"/>
<path d="M39.295 27.8526C40.451 26.4792 41.5434 25.1816 41.5434 23.5789C41.5434 18.6261 37.5141 14.5964 32.5612 14.5964C27.6084 14.5964 23.5791 18.6261 23.5791 23.5789C23.5791 25.1814 24.6099 26.4792 25.7655 27.8526C26.6471 28.8997 27.6492 30.0867 28.2106 31.5357V31.5362C28.772 32.4408 28.5077 33.6678 28.3565 34.8547C28.158 36.4216 27.9837 38.0422 29.0199 39.2182C29.7326 40.0274 30.8971 40.4211 32.5462 40.4211C34.1954 40.4211 35.3521 40.0274 36.0649 39.2182C37.101 38.0422 36.8999 36.4216 36.7014 34.8547C36.5501 33.6677 36.3962 32.4408 36.7877 31.5356C37.4136 30.0867 38.4134 28.8997 39.295 27.8526ZM34.7281 30.6448C34.0932 32.1136 34.2972 33.7199 34.477 35.1372C34.613 36.2096 34.7534 37.3187 34.3881 37.7337C34.137 38.0188 33.4879 38.1756 32.5614 38.1756C31.6349 38.1756 30.9857 38.0188 30.7346 37.7337C30.3695 37.3187 30.5405 36.2096 30.6765 35.1372C30.8564 33.7199 31.0175 32.1136 30.4561 30.6448V30.6453C29.614 28.8931 28.5559 27.5718 27.5756 26.4063C26.6524 25.3098 25.8399 24.3624 25.8399 23.5791C25.8399 19.8642 28.8464 16.8422 32.5614 16.8422C36.2764 16.8422 39.2982 19.8641 39.2982 23.5791C39.2982 24.3626 38.5011 25.3098 37.5779 26.4063C36.5976 27.5719 35.4846 28.8932 34.7281 30.6448Z" fill="black"/>
<path d="M25.3542 31.6474C24.8509 31.2889 24.1492 31.4045 23.7884 31.9089L18.1744 39.7685C17.8137 40.2729 17.931 40.9741 18.4354 41.3349C18.6328 41.4758 18.8608 41.5438 19.0868 41.5438C19.4377 41.5438 19.782 41.3804 20.0013 41.0734L25.6153 33.2138C25.9759 32.7093 25.8585 32.0081 25.3542 31.6474Z" fill="black"/>
<path d="M46.9484 39.7685L41.3344 31.9089C40.9737 31.4045 40.273 31.2883 39.7687 31.6474C39.2643 32.0082 39.1469 32.7094 39.5077 33.2138L45.1217 41.0734C45.3409 41.3804 45.6853 41.5438 46.0362 41.5438C46.262 41.5438 46.4902 41.4758 46.6875 41.3349C47.1918 40.9742 47.3091 40.2729 46.9484 39.7685Z" fill="black"/>
<path d="M47.0174 57.4036H16.7017V59.6492H47.0174V57.4036Z" fill="black"/>
</g>
<defs>
<clipPath id="clip0">
<rect width="64" height="64" fill="white"/>
</clipPath>
</defs>
</svg>
