<svg width="48" height="48" viewBox="0 0 48 48" fill="none" xmlns="http://www.w3.org/2000/svg">
<g clip-path="url(#clip0)">
<path d="M46.1876 19.8271L26.6089 19.8262C25.7443 19.8262 25.0435 20.5269 25.0435 21.3914V27.646C25.0435 28.5103 25.7443 29.2112 26.6088 29.2112H37.6343C36.427 32.3444 34.1736 34.9684 31.2987 36.6356L36 44.774C43.5414 40.4125 48 32.7597 48 24.193C48 22.9733 47.9101 22.1013 47.7303 21.1195C47.5936 20.3735 46.9459 19.8271 46.1876 19.8271Z" fill="#167EE6"/>
<path d="M24 38.6087C18.6043 38.6087 13.894 35.6607 11.3641 31.2982L3.22604 35.9889C7.36745 43.1666 15.1256 48.0001 24 48.0001C28.3535 48.0001 32.4613 46.8279 36 44.7852V44.774L31.2987 36.6356C29.1483 37.8828 26.6598 38.6087 24 38.6087Z" fill="#12B347"/>
<path d="M36 44.7851V44.7739L31.2987 36.6355C29.1483 37.8827 26.66 38.6087 24 38.6087V48C28.3535 48 32.4615 46.8278 36 44.7851Z" fill="#0F993E"/>
<path d="M9.39131 24C9.39131 21.3404 10.1171 18.8521 11.3641 16.7018L3.22603 12.0111C1.17206 15.5386 0 19.6353 0 24C0 28.3646 1.17206 32.4613 3.22603 35.9888L11.3641 31.2981C10.1171 29.1478 9.39131 26.6595 9.39131 24Z" fill="#FFD500"/>
<path d="M24 9.39131C27.5185 9.39131 30.7505 10.6416 33.2749 12.7212C33.8977 13.2342 34.8028 13.1972 35.3733 12.6267L39.8049 8.19516C40.4521 7.54791 40.406 6.48844 39.7146 5.88863C35.485 2.21934 29.9819 0 24 0C15.1256 0 7.36745 4.83347 3.22604 12.0112L11.3641 16.7018C13.894 12.3394 18.6043 9.39131 24 9.39131Z" fill="#FF4B26"/>
<path d="M33.2749 12.7212C33.8977 13.2342 34.8029 13.1972 35.3733 12.6267L39.8048 8.19516C40.452 7.54791 40.4059 6.48844 39.7146 5.88863C35.485 2.21925 29.9819 0 24 0V9.39131C27.5184 9.39131 30.7505 10.6416 33.2749 12.7212Z" fill="#D93F21"/>
</g>
<defs>
<clipPath id="clip0">
<rect width="48" height="48" fill="white"/>
</clipPath>
</defs>
</svg>
