<svg width="24" height="24" viewBox="0 0 24 24" fill="none" xmlns="http://www.w3.org/2000/svg">
<g clip-path="url(#clip0)">
<path d="M13.2496 24.0012H2.74998C1.23299 24.0012 0 22.7682 0 21.2512V2.75193C0 1.23495 1.23299 0.00195312 2.74998 0.00195312H13.2496C14.7666 0.00195312 15.9994 1.23495 15.9994 2.75193V8.2517C15.9994 8.66568 15.6635 9.00167 15.2495 9.00167C14.8355 9.00167 14.4995 8.66568 14.4995 8.2517V2.75193C14.4995 2.06292 13.9387 1.50191 13.2496 1.50191H2.74998C2.06097 1.50191 1.49995 2.06292 1.49995 2.75193V21.2512C1.49995 21.9402 2.06097 22.5013 2.74998 22.5013H13.2496C13.9387 22.5013 14.4995 21.9402 14.4995 21.2512V15.7515C14.4995 15.3375 14.8355 15.0015 15.2495 15.0015C15.6635 15.0015 15.9994 15.3375 15.9994 15.7515V21.2512C15.9994 22.7682 14.7666 24.0012 13.2496 24.0012Z" fill="black"/>
<path d="M23.2493 12.7503H8.74979C8.3358 12.7503 7.99982 12.4143 7.99982 12.0003C7.99982 11.5864 8.3358 11.2504 8.74979 11.2504H23.2493C23.6633 11.2504 23.9993 11.5864 23.9993 12.0003C23.9993 12.4143 23.6633 12.7503 23.2493 12.7503Z" fill="black"/>
<path d="M19.2495 16.7502C19.0574 16.7502 18.8655 16.6773 18.7194 16.5303C18.4264 16.2373 18.4264 15.7624 18.7194 15.4692L22.1893 11.9995L18.7194 8.52956C18.4264 8.2366 18.4264 7.76146 18.7194 7.4685C19.0123 7.17554 19.4873 7.17554 19.7804 7.4685L23.7803 11.4685C24.0732 11.7615 24.0732 12.2364 23.7803 12.5294L19.7804 16.5292C19.6334 16.6773 19.4413 16.7502 19.2495 16.7502Z" fill="black"/>
</g>
<defs>
<clipPath id="clip0">
<rect width="24" height="24" fill="white"/>
</clipPath>
</defs>
</svg>
