<svg width="64" height="64" viewBox="0 0 64 64" fill="none" xmlns="http://www.w3.org/2000/svg">
<path d="M56.5 8.72314V0H37.625C35.3872 0 33.3755 0.985351 32 2.54443C30.6245 0.985351 28.6128 0 26.375 0H7.5V8.72314H0V64L10.2769 53.7231H64V8.72314H56.5ZM30.125 35.9819C29.021 35.3418 27.7407 34.9731 26.375 34.9731H11.25V31.2231H26.375C28.4429 31.2231 30.125 32.9058 30.125 34.9731V35.9819ZM11.25 38.7231H26.375C28.4429 38.7231 30.125 40.4058 30.125 42.4731H11.25V38.7231ZM52.75 34.9731H37.625C36.2593 34.9731 34.979 35.3418 33.875 35.9819V34.9731C33.875 32.9058 35.5571 31.2231 37.625 31.2231H52.75V34.9731ZM52.75 38.7231V42.4731H33.875C33.875 40.4058 35.5571 38.7231 37.625 38.7231H52.75ZM37.625 3.75H52.75V27.4731H37.625C36.2593 27.4731 34.979 27.8418 33.875 28.4819V7.5C33.875 5.43213 35.5571 3.75 37.625 3.75ZM26.375 3.75C28.4429 3.75 30.125 5.43213 30.125 7.5V28.4819C29.021 27.8418 27.7407 27.4731 26.375 27.4731H11.25V3.75H26.375ZM60.25 49.9731H8.72314L3.75 54.9468V12.4731H7.5V46.2231H56.5V12.4731H60.25V49.9731Z" fill="black"/>
</svg>
