<svg width="64" height="64" viewBox="0 0 64 64" fill="none" xmlns="http://www.w3.org/2000/svg">
<path d="M34 23.2109V53.4819C32.9028 53.0156 31.626 52.75 30.25 52.75C26.0444 52.75 22.75 55.2207 22.75 58.375C22.75 61.5293 26.0444 64 30.25 64C34.4556 64 37.75 61.5293 37.75 58.375V33.5391L60.25 27.1108V45.9819C59.1528 45.5156 57.876 45.25 56.5 45.25C52.2944 45.25 49 47.7207 49 50.875C49 54.0293 52.2944 56.5 56.5 56.5C60.7056 56.5 64 54.0293 64 50.875V14.6392L34 23.2109ZM30.25 60.25C27.9609 60.25 26.5 59.1396 26.5 58.375C26.5 57.6104 27.9609 56.5 30.25 56.5C32.5391 56.5 34 57.6104 34 58.375C34 59.1396 32.5391 60.25 30.25 60.25ZM37.75 29.6392V26.0391L60.25 19.6108V23.2104L37.75 29.6392ZM56.5 52.75C54.2109 52.75 52.75 51.6396 52.75 50.875C52.75 50.1104 54.2109 49 56.5 49C58.7891 49 60.25 50.1104 60.25 50.875C60.25 51.6396 58.7891 52.75 56.5 52.75Z" fill="black"/>
<path d="M30 20.625V16.875C30 7.57031 22.4297 0 13.125 0H11.25V31.0088C10.146 30.3687 8.86572 30 7.5 30C3.36426 30 0 33.3643 0 37.5C0 41.6357 3.36426 45 7.5 45C11.6357 45 15 41.6357 15 37.5V3.8833C21.3521 4.7959 26.25 10.2744 26.25 16.875V20.625C26.25 21.6587 25.4087 22.5 24.375 22.5C23.3413 22.5 22.5 21.6587 22.5 20.625V16.875H18.75V20.625C18.75 23.7266 21.2734 26.25 24.375 26.25C27.4766 26.25 30 23.7266 30 20.625ZM7.5 41.25C5.43213 41.25 3.75 39.5679 3.75 37.5C3.75 35.4321 5.43213 33.75 7.5 33.75C9.56787 33.75 11.25 35.4321 11.25 37.5C11.25 39.5679 9.56787 41.25 7.5 41.25Z" fill="black"/>
</svg>
