<svg width="64" height="64" viewBox="0 0 64 64" fill="none" xmlns="http://www.w3.org/2000/svg">
<path d="M31.961 13.5774C31.9575 13.5774 31.9537 13.5774 31.9502 13.5774H31.9175C31.9139 13.5774 31.9104 13.5774 31.9067 13.5774C26.8991 13.5884 22.2051 15.4978 18.6848 18.9567C15.1347 22.445 13.1794 27.1222 13.1794 32.1266C13.1794 37.7363 15.5945 42.9126 19.8051 46.328C20.4549 46.8553 21.5451 48.5355 21.5451 53.8638V62.4377C21.5451 63.0901 22.0742 63.6192 22.7266 63.6192H41.1401C41.7925 63.6192 42.3216 63.0901 42.3216 62.4377V53.8638C42.3216 53.8543 42.3204 53.8454 42.3202 53.8362C42.3204 53.8267 42.3216 53.8177 42.3216 53.8084C42.3216 48.4313 43.412 46.7445 44.0626 46.2171C48.3348 42.7501 50.6878 37.7459 50.6878 32.1264C50.6878 27.1218 48.7328 22.4448 45.1829 18.9565C41.6627 15.4978 36.9687 13.5884 31.961 13.5774ZM39.959 61.2562H23.9085V55.0453H35.0889C35.1411 55.0524 35.1937 55.0573 35.2478 55.0573C35.302 55.0573 35.3545 55.0526 35.4067 55.0453H39.959V61.2562ZM29.6239 36.1891H34.2671C34.1563 40.6558 34.0807 48.2594 34.0681 52.6822H29.8215C29.8089 48.587 29.7366 40.7779 29.6239 36.1891ZM42.5743 44.3822C40.9534 45.6962 40.1015 48.4199 39.9771 52.6822H36.4311C36.4441 47.834 36.5302 40.3894 36.6306 36.1891H39.1571C41.2746 36.1891 43.0634 34.3138 43.0634 32.0939C43.0634 29.9248 41.2746 28.0925 39.1571 28.0925C37.2145 28.0925 34.9495 29.3086 34.4184 32.7229C34.3922 32.8918 34.367 33.2752 34.3428 33.826H29.5495C29.5245 33.2524 29.4983 32.8524 29.4709 32.6756C29.1212 30.4146 27.6929 27.9983 24.7332 27.9983C22.6161 27.9983 20.8277 29.8738 20.8277 32.0939C20.8277 34.3138 22.6161 36.1891 24.7332 36.1891H27.2601C27.3605 40.4099 27.4462 47.8458 27.459 52.6822H23.8884C23.7569 48.489 22.9064 45.801 21.2942 44.4929C17.6391 41.5282 15.5427 37.0209 15.5427 32.1266C15.5427 27.7612 17.2467 23.6826 20.3411 20.6423C23.4231 17.6141 27.5397 15.9446 31.9338 15.9404C36.3283 15.9446 40.4448 17.6141 43.5266 20.6423C46.6208 23.6826 48.3248 27.761 48.3248 32.1266C48.325 37.0203 46.2825 41.3726 42.5743 44.3822ZM36.7035 33.826C36.72 33.4515 36.7367 33.1967 36.7533 33.085C37.1093 30.797 38.4119 30.4553 39.1569 30.4553C39.979 30.4553 40.7002 31.221 40.7002 32.0937C40.7002 33.0003 39.9647 33.8258 39.1569 33.8258H36.7035V33.826ZM27.1876 33.826H24.733C23.9256 33.826 23.1905 33.0005 23.1905 32.0939C23.1905 31.1873 23.9256 30.3614 24.733 30.3614C26.4632 30.3614 26.9809 32.0376 27.1353 33.0372C27.1526 33.1535 27.1701 33.4255 27.1876 33.826Z" fill="black"/>
<path d="M40.3014 12.2079C40.453 12.2729 40.6109 12.3038 40.7661 12.3038C41.2245 12.3038 41.6607 12.0354 41.8527 11.5872L45.9203 2.09624C46.1775 1.49641 45.8996 0.801871 45.2998 0.544889C44.6998 0.287119 44.0053 0.565566 43.7485 1.16539L39.6809 10.6564C39.4237 11.2564 39.7015 11.951 40.3014 12.2079Z" fill="black"/>
<path d="M22.0716 11.5887C22.2563 12.0507 22.7 12.3317 23.169 12.3317C23.3149 12.3317 23.4636 12.3043 23.6076 12.2468C24.2133 12.0044 24.5081 11.3167 24.2659 10.7108L20.4306 1.12349C20.1884 0.517765 19.501 0.222777 18.8947 0.465187C18.2889 0.707597 17.9941 1.39525 18.2363 2.00117L22.0716 11.5887Z" fill="black"/>
<path d="M0.786931 20.6293L10.277 24.6993C10.429 24.7642 10.5867 24.7952 10.7421 24.7952C11.2003 24.7952 11.6365 24.5267 11.8287 24.0789C12.0859 23.4791 11.8082 22.7846 11.2086 22.5272L1.71837 18.4574C1.11815 18.2004 0.423808 18.4779 0.166629 19.0775C-0.0903534 19.6774 0.187306 20.3721 0.786931 20.6293Z" fill="black"/>
<path d="M10.3305 40.1125L0.742786 43.9499C0.137056 44.1923 -0.157538 44.8801 0.0848718 45.4858C0.269781 45.9478 0.713248 46.2286 1.18212 46.2286C1.32823 46.2286 1.47691 46.2013 1.62066 46.1436L11.2084 42.3062C11.8141 42.0638 12.1087 41.3759 11.8663 40.7702C11.6241 40.1646 10.9358 39.8701 10.3305 40.1125Z" fill="black"/>
<path d="M63.2127 44.1266L53.7193 40.0594C53.1181 39.802 52.425 40.08 52.1678 40.6801C51.9108 41.2799 52.1889 41.9744 52.7885 42.2316L62.2819 46.2988C62.4339 46.3638 62.5914 46.3945 62.7466 46.3945C63.205 46.3945 63.6412 46.1261 63.8334 45.6779C64.0904 45.0783 63.8125 44.3836 63.2127 44.1266Z" fill="black"/>
<path d="M53.2283 24.7309C53.3744 24.7309 53.5229 24.7035 53.667 24.6458L63.2571 20.8076C63.8628 20.5652 64.1574 19.8773 63.915 19.2716C63.6728 18.6657 62.9851 18.3713 62.379 18.6137L52.7889 22.4519C52.1832 22.6943 51.8886 23.3822 52.131 23.9879C52.3159 24.4499 52.7594 24.7309 53.2283 24.7309Z" fill="black"/>
</svg>
