<svg width="24" height="24" viewBox="0 0 24 24" fill="none" xmlns="http://www.w3.org/2000/svg">
<path d="M4.26562 0C3.87731 0 3.5625 0.314812 3.5625 0.703125V23.2969C3.5625 23.6852 3.87731 24 4.26562 24H19.7344C20.1227 24 20.4375 23.6852 20.4375 23.2969V0.703125C20.4375 0.314812 20.1227 0 19.7344 0H4.26562ZM19.0312 22.5938H4.96875V1.40625H19.0312V22.5938Z" fill="black"/>
<path d="M7.07812 18.3281H16.9219C17.3102 18.3281 17.625 18.0133 17.625 17.625C17.625 17.2367 17.3102 16.9219 16.9219 16.9219H7.07812C6.68981 16.9219 6.375 17.2367 6.375 17.625C6.375 18.0133 6.68981 18.3281 7.07812 18.3281Z" fill="black"/>
<path d="M7.07812 15.5156H16.9219C17.3102 15.5156 17.625 15.2008 17.625 14.8125C17.625 14.4242 17.3102 14.1094 16.9219 14.1094H7.07812C6.68981 14.1094 6.375 14.4242 6.375 14.8125C6.375 15.2008 6.68981 15.5156 7.07812 15.5156Z" fill="black"/>
<path d="M7.07812 12.7031H16.9219C17.3102 12.7031 17.625 12.3883 17.625 12C17.625 11.6117 17.3102 11.2969 16.9219 11.2969H7.07812C6.68981 11.2969 6.375 11.6117 6.375 12C6.375 12.3883 6.68981 12.7031 7.07812 12.7031Z" fill="black"/>
<path d="M7.07812 9.89062H11.2969C11.6852 9.89062 12 9.57581 12 9.1875C12 8.79919 11.6852 8.48438 11.2969 8.48438H7.07812C6.68981 8.48438 6.375 8.79919 6.375 9.1875C6.375 9.57581 6.68981 9.89062 7.07812 9.89062Z" fill="black"/>
<path d="M7.07812 7.07812H11.2969C11.6852 7.07812 12 6.76331 12 6.375C12 5.98669 11.6852 5.67188 11.2969 5.67188H7.07812C6.68981 5.67188 6.375 5.98669 6.375 6.375C6.375 6.76331 6.68981 7.07812 7.07812 7.07812Z" fill="black"/>
<path d="M14.1094 8.48438H14.8125V9.1875C14.8125 9.57581 15.1273 9.89062 15.5156 9.89062C15.9039 9.89062 16.2188 9.57581 16.2188 9.1875V8.48438H16.9219C17.3102 8.48438 17.625 8.16956 17.625 7.78125C17.625 7.39294 17.3102 7.07812 16.9219 7.07812H16.2188V6.375C16.2188 5.98669 15.9039 5.67188 15.5156 5.67188C15.1273 5.67188 14.8125 5.98669 14.8125 6.375V7.07812H14.1094C13.7211 7.07812 13.4062 7.39294 13.4062 7.78125C13.4062 8.16956 13.7211 8.48438 14.1094 8.48438Z" fill="black"/>
</svg>
